<svg width="940" height="81" viewBox="0 0 940 81" fill="none" xmlns="http://www.w3.org/2000/svg">
<mask id="path-1-outside-1_5089_1085" maskUnits="userSpaceOnUse" x="0" y="11" width="887" height="60" fill="black">
<rect fill="white" y="11" width="887" height="60"/>
<path d="M3 14.7219H44.9745C53.5807 14.7219 60.9758 15.3235 67.1599 16.5267C73.3955 17.7299 78.1881 19.5107 81.5379 21.869C84.8876 24.2273 86.5624 27.127 86.5624 30.5682C86.5624 33.3837 85.5318 35.8021 83.4704 37.8235C81.4606 39.8209 78.6004 41.4933 74.89 42.8409C71.2311 44.1644 66.928 45.2233 61.9807 46.0174L54.6371 47.8222H18.151L17.9964 39.3757H45.1291C49.2003 39.3757 52.5757 39.0388 55.2555 38.365C57.9353 37.6912 59.9451 36.7527 61.285 35.5495C62.6764 34.3463 63.3721 32.9505 63.3721 31.3623C63.3721 29.6778 62.7022 28.2219 61.3623 26.9947C60.0224 25.7674 57.9868 24.8289 55.2555 24.1791C52.5242 23.5294 49.0972 23.2045 44.9745 23.2045H26.1903V67.2781H3V14.7219ZM65.923 67.2781L40.2591 43.8516L64.7635 43.7794L90.7367 66.7727V67.2781H65.923Z"/>
<path d="M150.181 23.7099L119.57 67.2781H94.9109L136.731 14.7219H152.423L150.181 23.7099ZM175.613 67.2781L144.925 23.7099L142.451 14.7219H158.298L200.35 67.2781H175.613ZM174.222 47.7139V56.1965H114.777V47.7139H174.222Z"/>
<path d="M245.339 67.2781H220.834L220.989 58.8316H245.339C251.42 58.8316 256.547 58.1938 260.722 56.9184C264.896 55.619 268.04 53.7299 270.152 51.2513C272.317 48.7727 273.399 45.7767 273.399 42.2634V39.7005C273.399 37.0053 272.781 34.635 271.544 32.5896C270.359 30.5441 268.581 28.8235 266.21 27.4278C263.84 26.0321 260.928 24.9853 257.475 24.2874C254.022 23.5655 250.054 23.2045 245.571 23.2045H220.371V14.7219H245.571C253.095 14.7219 259.974 15.3235 266.21 16.5267C272.497 17.7059 277.934 19.4024 282.521 21.6163C287.107 23.8302 290.637 26.4773 293.111 29.5575C295.636 32.6136 296.899 36.0187 296.899 39.7727V42.2634C296.899 45.9933 295.636 49.3984 293.111 52.4786C290.637 55.5588 287.107 58.2059 282.521 60.4198C277.986 62.6096 272.549 64.3061 266.21 65.5094C259.923 66.6885 252.966 67.2781 245.339 67.2781ZM233.976 14.7219V67.2781H210.785V14.7219H233.976Z"/>
<path d="M338.409 14.7219V67.2781H315.296V14.7219H338.409Z"/>
<path d="M452.583 39.7727V42.2634C452.583 46.258 451.423 49.8436 449.104 53.0201C446.785 56.1965 443.513 58.9037 439.287 61.1417C435.061 63.3556 430.011 65.0521 424.136 66.2313C418.313 67.4104 411.845 68 404.734 68C397.673 68 391.206 67.4104 385.331 66.2313C379.508 65.0521 374.457 63.3556 370.18 61.1417C365.903 58.9037 362.579 56.1965 360.208 53.0201C357.889 49.8436 356.73 46.258 356.73 42.2634V39.7727C356.73 35.754 357.889 32.1684 360.208 29.016C362.527 25.8396 365.8 23.1324 370.025 20.8944C374.303 18.6564 379.353 16.9479 385.176 15.7687C391.051 14.5896 397.519 14 404.579 14C411.691 14 418.158 14.5896 423.982 15.7687C429.856 16.9479 434.907 18.6564 439.133 20.8944C443.41 23.1324 446.708 25.8396 449.027 29.016C451.398 32.1684 452.583 35.754 452.583 39.7727ZM429.161 42.2634V39.7005C429.161 36.9091 428.62 34.4545 427.537 32.3369C426.455 30.2193 424.858 28.4385 422.745 26.9947C420.632 25.5508 418.055 24.4679 415.015 23.746C411.974 23 408.496 22.627 404.579 22.627C400.662 22.627 397.184 23 394.143 23.746C391.154 24.4679 388.603 25.5508 386.49 26.9947C384.429 28.4385 382.857 30.2193 381.775 32.3369C380.693 34.4545 380.152 36.9091 380.152 39.7005V42.2634C380.152 45.0307 380.693 47.4853 381.775 49.627C382.857 51.7447 384.455 53.5374 386.568 55.0053C388.681 56.4492 391.257 57.5441 394.298 58.2901C397.338 59.0361 400.817 59.4091 404.734 59.4091C408.65 59.4091 412.129 59.0361 415.169 58.2901C418.21 57.5441 420.761 56.4492 422.822 55.0053C424.883 53.5374 426.455 51.7447 427.537 49.627C428.62 47.4853 429.161 45.0307 429.161 42.2634Z"/>
<path d="M567.298 53.5254C567.298 52.5869 566.988 51.7447 566.37 50.9987C565.803 50.2286 564.721 49.5307 563.123 48.9051C561.526 48.2553 559.284 47.6176 556.398 46.992C553.512 46.3663 549.776 45.7166 545.19 45.0428C540.088 44.2727 535.243 43.4064 530.657 42.4438C526.122 41.4813 522.102 40.3623 518.598 39.0869C515.145 37.7874 512.414 36.2834 510.404 34.5749C508.446 32.8663 507.467 30.881 507.467 28.619C507.467 26.4291 508.497 24.4438 510.559 22.6631C512.62 20.8583 515.506 19.3182 519.216 18.0428C522.927 16.7433 527.307 15.7447 532.358 15.0468C537.459 14.3489 543.051 14 549.132 14C557.429 14 564.669 14.6979 570.853 16.0936C577.038 17.4893 581.83 19.4024 585.232 21.8329C588.684 24.2634 590.411 27.0428 590.411 30.1711H567.375C567.375 28.631 566.679 27.2834 565.288 26.1283C563.948 24.9492 561.887 24.0227 559.104 23.3489C556.372 22.6751 552.92 22.3382 548.745 22.3382C544.726 22.3382 541.376 22.627 538.696 23.2045C536.016 23.758 534.007 24.516 532.667 25.4786C531.327 26.4171 530.657 27.4759 530.657 28.6551C530.657 29.5455 531.121 30.3516 532.048 31.0735C533.028 31.7955 534.47 32.4693 536.377 33.0949C538.284 33.7206 540.629 34.3102 543.412 34.8636C546.194 35.4171 549.415 35.9586 553.074 36.488C559.207 37.3543 564.592 38.3289 569.23 39.4118C573.92 40.4947 577.836 41.7099 580.98 43.0575C584.123 44.4051 586.494 45.9332 588.092 47.6417C589.689 49.3503 590.488 51.2874 590.488 53.4532C590.488 55.7393 589.535 57.7848 587.628 59.5896C585.721 61.3944 582.964 62.9225 579.357 64.1738C575.749 65.4251 571.446 66.3757 566.447 67.0254C561.449 67.6751 555.857 68 549.673 68C544.107 68 538.619 67.6631 533.208 66.9893C527.797 66.2914 522.875 65.2447 518.443 63.8489C514.063 62.4532 510.559 60.6725 507.93 58.5067C505.302 56.3409 503.988 53.7781 503.988 50.8182H527.256C527.256 52.4545 527.797 53.8382 528.879 54.9692C529.961 56.1003 531.482 57.0147 533.44 57.7126C535.45 58.4104 537.82 58.9158 540.551 59.2286C543.334 59.5414 546.375 59.6979 549.673 59.6979C553.693 59.6979 556.991 59.4332 559.568 58.9037C562.196 58.3743 564.128 57.6404 565.365 56.7019C566.653 55.7634 567.298 54.7045 567.298 53.5254Z"/>
<path d="M698.709 39.7727V42.2634C698.709 46.258 697.55 49.8436 695.231 53.0201C692.912 56.1965 689.639 58.9037 685.414 61.1417C681.188 63.3556 676.138 65.0521 670.263 66.2313C664.439 67.4104 657.972 68 650.86 68C643.8 68 637.332 67.4104 631.458 66.2313C625.634 65.0521 620.584 63.3556 616.307 61.1417C612.029 58.9037 608.705 56.1965 606.335 53.0201C604.016 49.8436 602.856 46.258 602.856 42.2634V39.7727C602.856 35.754 604.016 32.1684 606.335 29.016C608.654 25.8396 611.926 23.1324 616.152 20.8944C620.429 18.6564 625.48 16.9479 631.303 15.7687C637.178 14.5896 643.645 14 650.705 14C657.817 14 664.285 14.5896 670.108 15.7687C675.983 16.9479 681.033 18.6564 685.259 20.8944C689.536 23.1324 692.835 25.8396 695.154 29.016C697.524 32.1684 698.709 35.754 698.709 39.7727ZM675.287 42.2634V39.7005C675.287 36.9091 674.746 34.4545 673.664 32.3369C672.582 30.2193 670.984 28.4385 668.871 26.9947C666.758 25.5508 664.182 24.4679 661.141 23.746C658.101 23 654.622 22.627 650.705 22.627C646.789 22.627 643.31 23 640.27 23.746C637.281 24.4679 634.73 25.5508 632.617 26.9947C630.556 28.4385 628.984 30.2193 627.902 32.3369C626.819 34.4545 626.278 36.9091 626.278 39.7005V42.2634C626.278 45.0307 626.819 47.4853 627.902 49.627C628.984 51.7447 630.581 53.5374 632.694 55.0053C634.807 56.4492 637.384 57.5441 640.424 58.2901C643.465 59.0361 646.943 59.4091 650.86 59.4091C654.777 59.4091 658.255 59.0361 661.296 58.2901C664.336 57.5441 666.887 56.4492 668.948 55.0053C671.01 53.5374 672.582 51.7447 673.664 49.627C674.746 47.4853 675.287 45.0307 675.287 42.2634Z"/>
<path d="M738.597 14.7219V67.2781H715.406V14.7219H738.597ZM783.431 37.1738V45.6203H732.258V37.1738H783.431ZM788.842 14.7219V23.2045H732.258V14.7219H788.842Z"/>
<path d="M833.832 23.7099L803.22 67.2781H778.561L820.381 14.7219H836.073L833.832 23.7099ZM859.264 67.2781L828.575 23.7099L826.102 14.7219H841.948L884 67.2781H859.264ZM857.872 47.7139V56.1965H798.428V47.7139H857.872Z"/>
</mask>
<path d="M3 14.7219H44.9745C53.5807 14.7219 60.9758 15.3235 67.1599 16.5267C73.3955 17.7299 78.1881 19.5107 81.5379 21.869C84.8876 24.2273 86.5624 27.127 86.5624 30.5682C86.5624 33.3837 85.5318 35.8021 83.4704 37.8235C81.4606 39.8209 78.6004 41.4933 74.89 42.8409C71.2311 44.1644 66.928 45.2233 61.9807 46.0174L54.6371 47.8222H18.151L17.9964 39.3757H45.1291C49.2003 39.3757 52.5757 39.0388 55.2555 38.365C57.9353 37.6912 59.9451 36.7527 61.285 35.5495C62.6764 34.3463 63.3721 32.9505 63.3721 31.3623C63.3721 29.6778 62.7022 28.2219 61.3623 26.9947C60.0224 25.7674 57.9868 24.8289 55.2555 24.1791C52.5242 23.5294 49.0972 23.2045 44.9745 23.2045H26.1903V67.2781H3V14.7219ZM65.923 67.2781L40.2591 43.8516L64.7635 43.7794L90.7367 66.7727V67.2781H65.923Z" fill="black"/>
<path d="M150.181 23.7099L119.57 67.2781H94.9109L136.731 14.7219H152.423L150.181 23.7099ZM175.613 67.2781L144.925 23.7099L142.451 14.7219H158.298L200.35 67.2781H175.613ZM174.222 47.7139V56.1965H114.777V47.7139H174.222Z" fill="black"/>
<path d="M245.339 67.2781H220.834L220.989 58.8316H245.339C251.42 58.8316 256.547 58.1938 260.722 56.9184C264.896 55.619 268.04 53.7299 270.152 51.2513C272.317 48.7727 273.399 45.7767 273.399 42.2634V39.7005C273.399 37.0053 272.781 34.635 271.544 32.5896C270.359 30.5441 268.581 28.8235 266.21 27.4278C263.84 26.0321 260.928 24.9853 257.475 24.2874C254.022 23.5655 250.054 23.2045 245.571 23.2045H220.371V14.7219H245.571C253.095 14.7219 259.974 15.3235 266.21 16.5267C272.497 17.7059 277.934 19.4024 282.521 21.6163C287.107 23.8302 290.637 26.4773 293.111 29.5575C295.636 32.6136 296.899 36.0187 296.899 39.7727V42.2634C296.899 45.9933 295.636 49.3984 293.111 52.4786C290.637 55.5588 287.107 58.2059 282.521 60.4198C277.986 62.6096 272.549 64.3061 266.21 65.5094C259.923 66.6885 252.966 67.2781 245.339 67.2781ZM233.976 14.7219V67.2781H210.785V14.7219H233.976Z" fill="black"/>
<path d="M338.409 14.7219V67.2781H315.296V14.7219H338.409Z" fill="black"/>
<path d="M452.583 39.7727V42.2634C452.583 46.258 451.423 49.8436 449.104 53.0201C446.785 56.1965 443.513 58.9037 439.287 61.1417C435.061 63.3556 430.011 65.0521 424.136 66.2313C418.313 67.4104 411.845 68 404.734 68C397.673 68 391.206 67.4104 385.331 66.2313C379.508 65.0521 374.457 63.3556 370.18 61.1417C365.903 58.9037 362.579 56.1965 360.208 53.0201C357.889 49.8436 356.73 46.258 356.73 42.2634V39.7727C356.73 35.754 357.889 32.1684 360.208 29.016C362.527 25.8396 365.8 23.1324 370.025 20.8944C374.303 18.6564 379.353 16.9479 385.176 15.7687C391.051 14.5896 397.519 14 404.579 14C411.691 14 418.158 14.5896 423.982 15.7687C429.856 16.9479 434.907 18.6564 439.133 20.8944C443.41 23.1324 446.708 25.8396 449.027 29.016C451.398 32.1684 452.583 35.754 452.583 39.7727ZM429.161 42.2634V39.7005C429.161 36.9091 428.62 34.4545 427.537 32.3369C426.455 30.2193 424.858 28.4385 422.745 26.9947C420.632 25.5508 418.055 24.4679 415.015 23.746C411.974 23 408.496 22.627 404.579 22.627C400.662 22.627 397.184 23 394.143 23.746C391.154 24.4679 388.603 25.5508 386.49 26.9947C384.429 28.4385 382.857 30.2193 381.775 32.3369C380.693 34.4545 380.152 36.9091 380.152 39.7005V42.2634C380.152 45.0307 380.693 47.4853 381.775 49.627C382.857 51.7447 384.455 53.5374 386.568 55.0053C388.681 56.4492 391.257 57.5441 394.298 58.2901C397.338 59.0361 400.817 59.4091 404.734 59.4091C408.65 59.4091 412.129 59.0361 415.169 58.2901C418.21 57.5441 420.761 56.4492 422.822 55.0053C424.883 53.5374 426.455 51.7447 427.537 49.627C428.62 47.4853 429.161 45.0307 429.161 42.2634Z" fill="black"/>
<path d="M567.298 53.5254C567.298 52.5869 566.988 51.7447 566.37 50.9987C565.803 50.2286 564.721 49.5307 563.123 48.9051C561.526 48.2553 559.284 47.6176 556.398 46.992C553.512 46.3663 549.776 45.7166 545.19 45.0428C540.088 44.2727 535.243 43.4064 530.657 42.4438C526.122 41.4813 522.102 40.3623 518.598 39.0869C515.145 37.7874 512.414 36.2834 510.404 34.5749C508.446 32.8663 507.467 30.881 507.467 28.619C507.467 26.4291 508.497 24.4438 510.559 22.6631C512.62 20.8583 515.506 19.3182 519.216 18.0428C522.927 16.7433 527.307 15.7447 532.358 15.0468C537.459 14.3489 543.051 14 549.132 14C557.429 14 564.669 14.6979 570.853 16.0936C577.038 17.4893 581.83 19.4024 585.232 21.8329C588.684 24.2634 590.411 27.0428 590.411 30.1711H567.375C567.375 28.631 566.679 27.2834 565.288 26.1283C563.948 24.9492 561.887 24.0227 559.104 23.3489C556.372 22.6751 552.92 22.3382 548.745 22.3382C544.726 22.3382 541.376 22.627 538.696 23.2045C536.016 23.758 534.007 24.516 532.667 25.4786C531.327 26.4171 530.657 27.4759 530.657 28.6551C530.657 29.5455 531.121 30.3516 532.048 31.0735C533.028 31.7955 534.47 32.4693 536.377 33.0949C538.284 33.7206 540.629 34.3102 543.412 34.8636C546.194 35.4171 549.415 35.9586 553.074 36.488C559.207 37.3543 564.592 38.3289 569.23 39.4118C573.92 40.4947 577.836 41.7099 580.98 43.0575C584.123 44.4051 586.494 45.9332 588.092 47.6417C589.689 49.3503 590.488 51.2874 590.488 53.4532C590.488 55.7393 589.535 57.7848 587.628 59.5896C585.721 61.3944 582.964 62.9225 579.357 64.1738C575.749 65.4251 571.446 66.3757 566.447 67.0254C561.449 67.6751 555.857 68 549.673 68C544.107 68 538.619 67.6631 533.208 66.9893C527.797 66.2914 522.875 65.2447 518.443 63.8489C514.063 62.4532 510.559 60.6725 507.93 58.5067C505.302 56.3409 503.988 53.7781 503.988 50.8182H527.256C527.256 52.4545 527.797 53.8382 528.879 54.9692C529.961 56.1003 531.482 57.0147 533.44 57.7126C535.45 58.4104 537.82 58.9158 540.551 59.2286C543.334 59.5414 546.375 59.6979 549.673 59.6979C553.693 59.6979 556.991 59.4332 559.568 58.9037C562.196 58.3743 564.128 57.6404 565.365 56.7019C566.653 55.7634 567.298 54.7045 567.298 53.5254Z" fill="black"/>
<path d="M698.709 39.7727V42.2634C698.709 46.258 697.55 49.8436 695.231 53.0201C692.912 56.1965 689.639 58.9037 685.414 61.1417C681.188 63.3556 676.138 65.0521 670.263 66.2313C664.439 67.4104 657.972 68 650.86 68C643.8 68 637.332 67.4104 631.458 66.2313C625.634 65.0521 620.584 63.3556 616.307 61.1417C612.029 58.9037 608.705 56.1965 606.335 53.0201C604.016 49.8436 602.856 46.258 602.856 42.2634V39.7727C602.856 35.754 604.016 32.1684 606.335 29.016C608.654 25.8396 611.926 23.1324 616.152 20.8944C620.429 18.6564 625.48 16.9479 631.303 15.7687C637.178 14.5896 643.645 14 650.705 14C657.817 14 664.285 14.5896 670.108 15.7687C675.983 16.9479 681.033 18.6564 685.259 20.8944C689.536 23.1324 692.835 25.8396 695.154 29.016C697.524 32.1684 698.709 35.754 698.709 39.7727ZM675.287 42.2634V39.7005C675.287 36.9091 674.746 34.4545 673.664 32.3369C672.582 30.2193 670.984 28.4385 668.871 26.9947C666.758 25.5508 664.182 24.4679 661.141 23.746C658.101 23 654.622 22.627 650.705 22.627C646.789 22.627 643.31 23 640.27 23.746C637.281 24.4679 634.73 25.5508 632.617 26.9947C630.556 28.4385 628.984 30.2193 627.902 32.3369C626.819 34.4545 626.278 36.9091 626.278 39.7005V42.2634C626.278 45.0307 626.819 47.4853 627.902 49.627C628.984 51.7447 630.581 53.5374 632.694 55.0053C634.807 56.4492 637.384 57.5441 640.424 58.2901C643.465 59.0361 646.943 59.4091 650.86 59.4091C654.777 59.4091 658.255 59.0361 661.296 58.2901C664.336 57.5441 666.887 56.4492 668.948 55.0053C671.01 53.5374 672.582 51.7447 673.664 49.627C674.746 47.4853 675.287 45.0307 675.287 42.2634Z" fill="black"/>
<path d="M738.597 14.7219V67.2781H715.406V14.7219H738.597ZM783.431 37.1738V45.6203H732.258V37.1738H783.431ZM788.842 14.7219V23.2045H732.258V14.7219H788.842Z" fill="black"/>
<path d="M833.832 23.7099L803.22 67.2781H778.561L820.381 14.7219H836.073L833.832 23.7099ZM859.264 67.2781L828.575 23.7099L826.102 14.7219H841.948L884 67.2781H859.264ZM857.872 47.7139V56.1965H798.428V47.7139H857.872Z" fill="black"/>
<path d="M3 14.7219H44.9745C53.5807 14.7219 60.9758 15.3235 67.1599 16.5267C73.3955 17.7299 78.1881 19.5107 81.5379 21.869C84.8876 24.2273 86.5624 27.127 86.5624 30.5682C86.5624 33.3837 85.5318 35.8021 83.4704 37.8235C81.4606 39.8209 78.6004 41.4933 74.89 42.8409C71.2311 44.1644 66.928 45.2233 61.9807 46.0174L54.6371 47.8222H18.151L17.9964 39.3757H45.1291C49.2003 39.3757 52.5757 39.0388 55.2555 38.365C57.9353 37.6912 59.9451 36.7527 61.285 35.5495C62.6764 34.3463 63.3721 32.9505 63.3721 31.3623C63.3721 29.6778 62.7022 28.2219 61.3623 26.9947C60.0224 25.7674 57.9868 24.8289 55.2555 24.1791C52.5242 23.5294 49.0972 23.2045 44.9745 23.2045H26.1903V67.2781H3V14.7219ZM65.923 67.2781L40.2591 43.8516L64.7635 43.7794L90.7367 66.7727V67.2781H65.923Z" stroke="black" stroke-width="6" stroke-linejoin="round" mask="url(#path-1-outside-1_5089_1085)"/>
<path d="M150.181 23.7099L119.57 67.2781H94.9109L136.731 14.7219H152.423L150.181 23.7099ZM175.613 67.2781L144.925 23.7099L142.451 14.7219H158.298L200.35 67.2781H175.613ZM174.222 47.7139V56.1965H114.777V47.7139H174.222Z" stroke="black" stroke-width="6" stroke-linejoin="round" mask="url(#path-1-outside-1_5089_1085)"/>
<path d="M245.339 67.2781H220.834L220.989 58.8316H245.339C251.42 58.8316 256.547 58.1938 260.722 56.9184C264.896 55.619 268.04 53.7299 270.152 51.2513C272.317 48.7727 273.399 45.7767 273.399 42.2634V39.7005C273.399 37.0053 272.781 34.635 271.544 32.5896C270.359 30.5441 268.581 28.8235 266.21 27.4278C263.84 26.0321 260.928 24.9853 257.475 24.2874C254.022 23.5655 250.054 23.2045 245.571 23.2045H220.371V14.7219H245.571C253.095 14.7219 259.974 15.3235 266.21 16.5267C272.497 17.7059 277.934 19.4024 282.521 21.6163C287.107 23.8302 290.637 26.4773 293.111 29.5575C295.636 32.6136 296.899 36.0187 296.899 39.7727V42.2634C296.899 45.9933 295.636 49.3984 293.111 52.4786C290.637 55.5588 287.107 58.2059 282.521 60.4198C277.986 62.6096 272.549 64.3061 266.21 65.5094C259.923 66.6885 252.966 67.2781 245.339 67.2781ZM233.976 14.7219V67.2781H210.785V14.7219H233.976Z" stroke="black" stroke-width="6" stroke-linejoin="round" mask="url(#path-1-outside-1_5089_1085)"/>
<path d="M338.409 14.7219V67.2781H315.296V14.7219H338.409Z" stroke="black" stroke-width="6" stroke-linejoin="round" mask="url(#path-1-outside-1_5089_1085)"/>
<path d="M452.583 39.7727V42.2634C452.583 46.258 451.423 49.8436 449.104 53.0201C446.785 56.1965 443.513 58.9037 439.287 61.1417C435.061 63.3556 430.011 65.0521 424.136 66.2313C418.313 67.4104 411.845 68 404.734 68C397.673 68 391.206 67.4104 385.331 66.2313C379.508 65.0521 374.457 63.3556 370.18 61.1417C365.903 58.9037 362.579 56.1965 360.208 53.0201C357.889 49.8436 356.73 46.258 356.73 42.2634V39.7727C356.73 35.754 357.889 32.1684 360.208 29.016C362.527 25.8396 365.8 23.1324 370.025 20.8944C374.303 18.6564 379.353 16.9479 385.176 15.7687C391.051 14.5896 397.519 14 404.579 14C411.691 14 418.158 14.5896 423.982 15.7687C429.856 16.9479 434.907 18.6564 439.133 20.8944C443.41 23.1324 446.708 25.8396 449.027 29.016C451.398 32.1684 452.583 35.754 452.583 39.7727ZM429.161 42.2634V39.7005C429.161 36.9091 428.62 34.4545 427.537 32.3369C426.455 30.2193 424.858 28.4385 422.745 26.9947C420.632 25.5508 418.055 24.4679 415.015 23.746C411.974 23 408.496 22.627 404.579 22.627C400.662 22.627 397.184 23 394.143 23.746C391.154 24.4679 388.603 25.5508 386.49 26.9947C384.429 28.4385 382.857 30.2193 381.775 32.3369C380.693 34.4545 380.152 36.9091 380.152 39.7005V42.2634C380.152 45.0307 380.693 47.4853 381.775 49.627C382.857 51.7447 384.455 53.5374 386.568 55.0053C388.681 56.4492 391.257 57.5441 394.298 58.2901C397.338 59.0361 400.817 59.4091 404.734 59.4091C408.65 59.4091 412.129 59.0361 415.169 58.2901C418.21 57.5441 420.761 56.4492 422.822 55.0053C424.883 53.5374 426.455 51.7447 427.537 49.627C428.62 47.4853 429.161 45.0307 429.161 42.2634Z" stroke="black" stroke-width="6" stroke-linejoin="round" mask="url(#path-1-outside-1_5089_1085)"/>
<path d="M567.298 53.5254C567.298 52.5869 566.988 51.7447 566.37 50.9987C565.803 50.2286 564.721 49.5307 563.123 48.9051C561.526 48.2553 559.284 47.6176 556.398 46.992C553.512 46.3663 549.776 45.7166 545.19 45.0428C540.088 44.2727 535.243 43.4064 530.657 42.4438C526.122 41.4813 522.102 40.3623 518.598 39.0869C515.145 37.7874 512.414 36.2834 510.404 34.5749C508.446 32.8663 507.467 30.881 507.467 28.619C507.467 26.4291 508.497 24.4438 510.559 22.6631C512.62 20.8583 515.506 19.3182 519.216 18.0428C522.927 16.7433 527.307 15.7447 532.358 15.0468C537.459 14.3489 543.051 14 549.132 14C557.429 14 564.669 14.6979 570.853 16.0936C577.038 17.4893 581.83 19.4024 585.232 21.8329C588.684 24.2634 590.411 27.0428 590.411 30.1711H567.375C567.375 28.631 566.679 27.2834 565.288 26.1283C563.948 24.9492 561.887 24.0227 559.104 23.3489C556.372 22.6751 552.92 22.3382 548.745 22.3382C544.726 22.3382 541.376 22.627 538.696 23.2045C536.016 23.758 534.007 24.516 532.667 25.4786C531.327 26.4171 530.657 27.4759 530.657 28.6551C530.657 29.5455 531.121 30.3516 532.048 31.0735C533.028 31.7955 534.47 32.4693 536.377 33.0949C538.284 33.7206 540.629 34.3102 543.412 34.8636C546.194 35.4171 549.415 35.9586 553.074 36.488C559.207 37.3543 564.592 38.3289 569.23 39.4118C573.92 40.4947 577.836 41.7099 580.98 43.0575C584.123 44.4051 586.494 45.9332 588.092 47.6417C589.689 49.3503 590.488 51.2874 590.488 53.4532C590.488 55.7393 589.535 57.7848 587.628 59.5896C585.721 61.3944 582.964 62.9225 579.357 64.1738C575.749 65.4251 571.446 66.3757 566.447 67.0254C561.449 67.6751 555.857 68 549.673 68C544.107 68 538.619 67.6631 533.208 66.9893C527.797 66.2914 522.875 65.2447 518.443 63.8489C514.063 62.4532 510.559 60.6725 507.93 58.5067C505.302 56.3409 503.988 53.7781 503.988 50.8182H527.256C527.256 52.4545 527.797 53.8382 528.879 54.9692C529.961 56.1003 531.482 57.0147 533.44 57.7126C535.45 58.4104 537.82 58.9158 540.551 59.2286C543.334 59.5414 546.375 59.6979 549.673 59.6979C553.693 59.6979 556.991 59.4332 559.568 58.9037C562.196 58.3743 564.128 57.6404 565.365 56.7019C566.653 55.7634 567.298 54.7045 567.298 53.5254Z" stroke="black" stroke-width="6" stroke-linejoin="round" mask="url(#path-1-outside-1_5089_1085)"/>
<path d="M698.709 39.7727V42.2634C698.709 46.258 697.55 49.8436 695.231 53.0201C692.912 56.1965 689.639 58.9037 685.414 61.1417C681.188 63.3556 676.138 65.0521 670.263 66.2313C664.439 67.4104 657.972 68 650.86 68C643.8 68 637.332 67.4104 631.458 66.2313C625.634 65.0521 620.584 63.3556 616.307 61.1417C612.029 58.9037 608.705 56.1965 606.335 53.0201C604.016 49.8436 602.856 46.258 602.856 42.2634V39.7727C602.856 35.754 604.016 32.1684 606.335 29.016C608.654 25.8396 611.926 23.1324 616.152 20.8944C620.429 18.6564 625.48 16.9479 631.303 15.7687C637.178 14.5896 643.645 14 650.705 14C657.817 14 664.285 14.5896 670.108 15.7687C675.983 16.9479 681.033 18.6564 685.259 20.8944C689.536 23.1324 692.835 25.8396 695.154 29.016C697.524 32.1684 698.709 35.754 698.709 39.7727ZM675.287 42.2634V39.7005C675.287 36.9091 674.746 34.4545 673.664 32.3369C672.582 30.2193 670.984 28.4385 668.871 26.9947C666.758 25.5508 664.182 24.4679 661.141 23.746C658.101 23 654.622 22.627 650.705 22.627C646.789 22.627 643.31 23 640.27 23.746C637.281 24.4679 634.73 25.5508 632.617 26.9947C630.556 28.4385 628.984 30.2193 627.902 32.3369C626.819 34.4545 626.278 36.9091 626.278 39.7005V42.2634C626.278 45.0307 626.819 47.4853 627.902 49.627C628.984 51.7447 630.581 53.5374 632.694 55.0053C634.807 56.4492 637.384 57.5441 640.424 58.2901C643.465 59.0361 646.943 59.4091 650.86 59.4091C654.777 59.4091 658.255 59.0361 661.296 58.2901C664.336 57.5441 666.887 56.4492 668.948 55.0053C671.01 53.5374 672.582 51.7447 673.664 49.627C674.746 47.4853 675.287 45.0307 675.287 42.2634Z" stroke="black" stroke-width="6" stroke-linejoin="round" mask="url(#path-1-outside-1_5089_1085)"/>
<path d="M738.597 14.7219V67.2781H715.406V14.7219H738.597ZM783.431 37.1738V45.6203H732.258V37.1738H783.431ZM788.842 14.7219V23.2045H732.258V14.7219H788.842Z" stroke="black" stroke-width="6" stroke-linejoin="round" mask="url(#path-1-outside-1_5089_1085)"/>
<path d="M833.832 23.7099L803.22 67.2781H778.561L820.381 14.7219H836.073L833.832 23.7099ZM859.264 67.2781L828.575 23.7099L826.102 14.7219H841.948L884 67.2781H859.264ZM857.872 47.7139V56.1965H798.428V47.7139H857.872Z" stroke="black" stroke-width="6" stroke-linejoin="round" mask="url(#path-1-outside-1_5089_1085)"/>
</svg>
